<?xml version="1.0" standalone="no"?>
<!DOCTYPE svg PUBLIC "-//W3C//DTD SVG 20010904//EN"
 "http://www.w3.org/TR/2001/REC-SVG-20010904/DTD/svg10.dtd">
<svg version="1.0" xmlns="http://www.w3.org/2000/svg"
 width="48.000000pt" height="48.000000pt" viewBox="0 0 48.000000 48.000000"
 preserveAspectRatio="xMidYMid meet">

<g transform="translate(0.000000,48.000000) scale(0.100000,-0.100000)"
fill="#000000" stroke="none">
<path d="M0 240 l0 -240 240 0 240 0 0 240 0 240 -240 0 -240 0 0 -240z m470
0 l0 -230 -230 0 -230 0 0 230 0 230 230 0 230 0 0 -230z"/>
<path d="M190 330 c0 -61 -6 -69 -38 -49 -15 9 -26 6 -60 -16 l-42 -28 0 -72
0 -72 40 -27 c22 -14 42 -26 45 -26 3 0 23 12 45 26 l40 27 0 148 c0 126 -2
149 -15 149 -12 0 -15 -13 -15 -60z m-17 -98 c24 -21 24 -113 0 -134 -32 -27
-40 -28 -67 -7 -22 17 -26 28 -26 74 0 46 4 57 26 74 27 21 35 20 67 -7z"/>
<path d="M267 384 c-4 -4 -7 -69 -7 -145 l0 -138 37 -30 c21 -17 41 -31 45
-31 5 0 26 12 48 26 l40 27 0 72 0 72 -38 27 c-45 30 -55 32 -73 9 -12 -14
-15 -8 -19 47 -5 59 -16 81 -33 64z m111 -143 c18 -16 22 -29 22 -78 0 -54 -2
-60 -28 -75 -26 -16 -31 -16 -50 -2 -19 13 -22 25 -22 78 0 55 3 66 23 79 28
20 28 20 55 -2z"/>
</g>
</svg>
